<?xml version="1.0" encoding="UTF-8" standalone="no"?>
<!DOCTYPE svg PUBLIC "-//W3C//DTD SVG 1.1//EN"
 "http://www.w3.org/Graphics/SVG/1.1/DTD/svg11.dtd">
<!-- Generated by graphviz version 2.50.0 (0)
 -->
<!-- Title: Tree Pages: 1 -->
<svg width="2965pt" height="477pt"
 viewBox="0.00 0.00 2964.50 477.00" xmlns="http://www.w3.org/2000/svg" xmlns:xlink="http://www.w3.org/1999/xlink">
<g id="graph0" class="graph" transform="scale(1 1) rotate(0) translate(4 473)">
<title>Tree</title>
<polygon fill="white" stroke="transparent" points="-4,4 -4,-473 2960.5,-473 2960.5,4 -4,4"/>
<!-- 0 -->
<g id="node1" class="node">
<title>0</title>
<polygon fill="#f8dbc6" stroke="black" points="1560.5,-469 1387.5,-469 1387.5,-401 1560.5,-401 1560.5,-469"/>
<text text-anchor="middle" x="1474" y="-453.8" font-family="Helvetica,sans-Serif" font-size="14.00">page &lt;= 1.5</text>
<text text-anchor="middle" x="1474" y="-438.8" font-family="Helvetica,sans-Serif" font-size="14.00">squared_error = 401239.2</text>
<text text-anchor="middle" x="1474" y="-423.8" font-family="Helvetica,sans-Serif" font-size="14.00">samples = 173</text>
<text text-anchor="middle" x="1474" y="-408.8" font-family="Helvetica,sans-Serif" font-size="14.00">value = 789.405</text>
</g>
<!-- 1 -->
<g id="node2" class="node">
<title>1</title>
<polygon fill="#f2be99" stroke="black" points="1208,-365 1020,-365 1020,-297 1208,-297 1208,-365"/>
<text text-anchor="middle" x="1114" y="-349.8" font-family="Helvetica,sans-Serif" font-size="14.00">category &lt;= 2.5</text>
<text text-anchor="middle" x="1114" y="-334.8" font-family="Helvetica,sans-Serif" font-size="14.00">squared_error = 495488.954</text>
<text text-anchor="middle" x="1114" y="-319.8" font-family="Helvetica,sans-Serif" font-size="14.00">samples = 59</text>
<text text-anchor="middle" x="1114" y="-304.8" font-family="Helvetica,sans-Serif" font-size="14.00">value = 1354.831</text>
</g>
<!-- 0&#45;&gt;1 -->
<g id="edge1" class="edge">
<title>0&#45;&gt;1</title>
<path fill="none" stroke="black" d="M1387.31,-409.44C1336.39,-395.01 1271.69,-376.68 1218.03,-361.47"/>
<polygon fill="black" stroke="black" points="1218.72,-358.03 1208.14,-358.67 1216.81,-364.77 1218.72,-358.03"/>
<text text-anchor="middle" x="1220.33" y="-376.8" font-family="Helvetica,sans-Serif" font-size="14.00">True</text>
</g>
<!-- 16 -->
<g id="node17" class="node">
<title>16</title>
<polygon fill="#fbe9dd" stroke="black" points="1940,-365 1752,-365 1752,-297 1940,-297 1940,-365"/>
<text text-anchor="middle" x="1846" y="-349.8" font-family="Helvetica,sans-Serif" font-size="14.00">price &lt;= 56.0</text>
<text text-anchor="middle" x="1846" y="-334.8" font-family="Helvetica,sans-Serif" font-size="14.00">squared_error = 101364.825</text>
<text text-anchor="middle" x="1846" y="-319.8" font-family="Helvetica,sans-Serif" font-size="14.00">samples = 114</text>
<text text-anchor="middle" x="1846" y="-304.8" font-family="Helvetica,sans-Serif" font-size="14.00">value = 496.772</text>
</g>
<!-- 0&#45;&gt;16 -->
<g id="edge16" class="edge">
<title>0&#45;&gt;16</title>
<path fill="none" stroke="black" d="M1560.75,-410.21C1614.94,-395.36 1685.02,-376.14 1742.16,-360.47"/>
<polygon fill="black" stroke="black" points="1743.22,-363.81 1751.94,-357.79 1741.37,-357.06 1743.22,-363.81"/>
<text text-anchor="middle" x="1739.56" y="-375.81" font-family="Helvetica,sans-Serif" font-size="14.00">False</text>
</g>
<!-- 2 -->
<g id="node3" class="node">
<title>2</title>
<polygon fill="#eda978" stroke="black" points="686,-261 498,-261 498,-193 686,-193 686,-261"/>
<text text-anchor="middle" x="592" y="-245.8" font-family="Helvetica,sans-Serif" font-size="14.00">category &lt;= 1.5</text>
<text text-anchor="middle" x="592" y="-230.8" font-family="Helvetica,sans-Serif" font-size="14.00">squared_error = 492218.054</text>
<text text-anchor="middle" x="592" y="-215.8" font-family="Helvetica,sans-Serif" font-size="14.00">samples = 31</text>
<text text-anchor="middle" x="592" y="-200.8" font-family="Helvetica,sans-Serif" font-size="14.00">value = 1765.548</text>
</g>
<!-- 1&#45;&gt;2 -->
<g id="edge2" class="edge">
<title>1&#45;&gt;2</title>
<path fill="none" stroke="black" d="M1019.77,-311.59C928.59,-293.77 790.67,-266.82 696.24,-248.37"/>
<polygon fill="black" stroke="black" points="696.86,-244.92 686.38,-246.44 695.52,-251.79 696.86,-244.92"/>
</g>
<!-- 9 -->
<g id="node10" class="node">
<title>9</title>
<polygon fill="#f6d5bd" stroke="black" points="1208,-261 1020,-261 1020,-193 1208,-193 1208,-261"/>
<text text-anchor="middle" x="1114" y="-245.8" font-family="Helvetica,sans-Serif" font-size="14.00">colour &lt;= 10.0</text>
<text text-anchor="middle" x="1114" y="-230.8" font-family="Helvetica,sans-Serif" font-size="14.00">squared_error = 105573.953</text>
<text text-anchor="middle" x="1114" y="-215.8" font-family="Helvetica,sans-Serif" font-size="14.00">samples = 28</text>
<text text-anchor="middle" x="1114" y="-200.8" font-family="Helvetica,sans-Serif" font-size="14.00">value = 900.107</text>
</g>
<!-- 1&#45;&gt;9 -->
<g id="edge9" class="edge">
<title>1&#45;&gt;9</title>
<path fill="none" stroke="black" d="M1114,-296.88C1114,-288.78 1114,-279.98 1114,-271.47"/>
<polygon fill="black" stroke="black" points="1117.5,-271.3 1114,-261.3 1110.5,-271.3 1117.5,-271.3"/>
</g>
<!-- 3 -->
<g id="node4" class="node">
<title>3</title>
<polygon fill="#eb9e66" stroke="black" points="391,-157 203,-157 203,-89 391,-89 391,-157"/>
<text text-anchor="middle" x="297" y="-141.8" font-family="Helvetica,sans-Serif" font-size="14.00">location &lt;= 4.5</text>
<text text-anchor="middle" x="297" y="-126.8" font-family="Helvetica,sans-Serif" font-size="14.00">squared_error = 278006.367</text>
<text text-anchor="middle" x="297" y="-111.8" font-family="Helvetica,sans-Serif" font-size="14.00">samples = 17</text>
<text text-anchor="middle" x="297" y="-96.8" font-family="Helvetica,sans-Serif" font-size="14.00">value = 2000.471</text>
</g>
<!-- 2&#45;&gt;3 -->
<g id="edge3" class="edge">
<title>2&#45;&gt;3</title>
<path fill="none" stroke="black" d="M497.85,-193.45C466.9,-182.75 432.34,-170.8 400.72,-159.86"/>
<polygon fill="black" stroke="black" points="401.61,-156.47 391.02,-156.51 399.32,-163.08 401.61,-156.47"/>
</g>
<!-- 6 -->
<g id="node7" class="node">
<title>6</title>
<polygon fill="#f0b88f" stroke="black" points="686,-157 498,-157 498,-89 686,-89 686,-157"/>
<text text-anchor="middle" x="592" y="-141.8" font-family="Helvetica,sans-Serif" font-size="14.00">price &lt;= 64.5</text>
<text text-anchor="middle" x="592" y="-126.8" font-family="Helvetica,sans-Serif" font-size="14.00">squared_error = 603942.918</text>
<text text-anchor="middle" x="592" y="-111.8" font-family="Helvetica,sans-Serif" font-size="14.00">samples = 14</text>
<text text-anchor="middle" x="592" y="-96.8" font-family="Helvetica,sans-Serif" font-size="14.00">value = 1480.286</text>
</g>
<!-- 2&#45;&gt;6 -->
<g id="edge6" class="edge">
<title>2&#45;&gt;6</title>
<path fill="none" stroke="black" d="M592,-192.88C592,-184.78 592,-175.98 592,-167.47"/>
<polygon fill="black" stroke="black" points="595.5,-167.3 592,-157.3 588.5,-167.3 595.5,-167.3"/>
</g>
<!-- 4 -->
<g id="node5" class="node">
<title>4</title>
<polygon fill="#e99558" stroke="black" points="188,-53 0,-53 0,0 188,0 188,-53"/>
<text text-anchor="middle" x="94" y="-37.8" font-family="Helvetica,sans-Serif" font-size="14.00">squared_error = 182802.521</text>
<text text-anchor="middle" x="94" y="-22.8" font-family="Helvetica,sans-Serif" font-size="14.00">samples = 12</text>
<text text-anchor="middle" x="94" y="-7.8" font-family="Helvetica,sans-Serif" font-size="14.00">value = 2174.75</text>
</g>
<!-- 3&#45;&gt;4 -->
<g id="edge4" class="edge">
<title>3&#45;&gt;4</title>
<path fill="none" stroke="black" d="M226,-88.95C203.89,-78.66 179.65,-67.37 158.05,-57.32"/>
<polygon fill="black" stroke="black" points="159.51,-54.13 148.96,-53.09 156.55,-60.48 159.51,-54.13"/>
</g>
<!-- 5 -->
<g id="node6" class="node">
<title>5</title>
<polygon fill="#efb387" stroke="black" points="387.5,-53 206.5,-53 206.5,0 387.5,0 387.5,-53"/>
<text text-anchor="middle" x="297" y="-37.8" font-family="Helvetica,sans-Serif" font-size="14.00">squared_error = 258649.36</text>
<text text-anchor="middle" x="297" y="-22.8" font-family="Helvetica,sans-Serif" font-size="14.00">samples = 5</text>
<text text-anchor="middle" x="297" y="-7.8" font-family="Helvetica,sans-Serif" font-size="14.00">value = 1582.2</text>
</g>
<!-- 3&#45;&gt;5 -->
<g id="edge5" class="edge">
<title>3&#45;&gt;5</title>
<path fill="none" stroke="black" d="M297,-88.95C297,-80.72 297,-71.85 297,-63.48"/>
<polygon fill="black" stroke="black" points="300.5,-63.24 297,-53.24 293.5,-63.24 300.5,-63.24"/>
</g>
<!-- 7 -->
<g id="node8" class="node">
<title>7</title>
<polygon fill="#f1bc96" stroke="black" points="594,-53 406,-53 406,0 594,0 594,-53"/>
<text text-anchor="middle" x="500" y="-37.8" font-family="Helvetica,sans-Serif" font-size="14.00">squared_error = 552750.024</text>
<text text-anchor="middle" x="500" y="-22.8" font-family="Helvetica,sans-Serif" font-size="14.00">samples = 13</text>
<text text-anchor="middle" x="500" y="-7.8" font-family="Helvetica,sans-Serif" font-size="14.00">value = 1396.769</text>
</g>
<!-- 6&#45;&gt;7 -->
<g id="edge7" class="edge">
<title>6&#45;&gt;7</title>
<path fill="none" stroke="black" d="M559.82,-88.95C550.83,-79.71 541.06,-69.67 532.07,-60.44"/>
<polygon fill="black" stroke="black" points="534.54,-57.96 525.06,-53.24 529.52,-62.84 534.54,-57.96"/>
</g>
<!-- 8 -->
<g id="node9" class="node">
<title>8</title>
<polygon fill="#e58139" stroke="black" points="748,-53 612,-53 612,0 748,0 748,-53"/>
<text text-anchor="middle" x="680" y="-37.8" font-family="Helvetica,sans-Serif" font-size="14.00">squared_error = 0.0</text>
<text text-anchor="middle" x="680" y="-22.8" font-family="Helvetica,sans-Serif" font-size="14.00">samples = 1</text>
<text text-anchor="middle" x="680" y="-7.8" font-family="Helvetica,sans-Serif" font-size="14.00">value = 2566.0</text>
</g>
<!-- 6&#45;&gt;8 -->
<g id="edge8" class="edge">
<title>6&#45;&gt;8</title>
<path fill="none" stroke="black" d="M622.78,-88.95C631.3,-79.8 640.54,-69.87 649.07,-60.71"/>
<polygon fill="black" stroke="black" points="651.78,-62.94 656.03,-53.24 646.66,-58.17 651.78,-62.94"/>
</g>
<!-- 10 -->
<g id="node11" class="node">
<title>10</title>
<polygon fill="#f7d9c3" stroke="black" points="1105.5,-157 924.5,-157 924.5,-89 1105.5,-89 1105.5,-157"/>
<text text-anchor="middle" x="1015" y="-141.8" font-family="Helvetica,sans-Serif" font-size="14.00">location &lt;= 1.5</text>
<text text-anchor="middle" x="1015" y="-126.8" font-family="Helvetica,sans-Serif" font-size="14.00">squared_error = 61458.435</text>
<text text-anchor="middle" x="1015" y="-111.8" font-family="Helvetica,sans-Serif" font-size="14.00">samples = 23</text>
<text text-anchor="middle" x="1015" y="-96.8" font-family="Helvetica,sans-Serif" font-size="14.00">value = 828.0</text>
</g>
<!-- 9&#45;&gt;10 -->
<g id="edge10" class="edge">
<title>9&#45;&gt;10</title>
<path fill="none" stroke="black" d="M1081.86,-192.88C1073.13,-183.89 1063.57,-174.04 1054.48,-164.68"/>
<polygon fill="black" stroke="black" points="1056.8,-162.04 1047.32,-157.3 1051.77,-166.91 1056.8,-162.04"/>
</g>
<!-- 13 -->
<g id="node14" class="node">
<title>13</title>
<polygon fill="#f3c4a3" stroke="black" points="1304.5,-157 1123.5,-157 1123.5,-89 1304.5,-89 1304.5,-157"/>
<text text-anchor="middle" x="1214" y="-141.8" font-family="Helvetica,sans-Serif" font-size="14.00">price &lt;= 35.5</text>
<text text-anchor="middle" x="1214" y="-126.8" font-family="Helvetica,sans-Serif" font-size="14.00">squared_error = 174567.76</text>
<text text-anchor="middle" x="1214" y="-111.8" font-family="Helvetica,sans-Serif" font-size="14.00">samples = 5</text>
<text text-anchor="middle" x="1214" y="-96.8" font-family="Helvetica,sans-Serif" font-size="14.00">value = 1231.8</text>
</g>
<!-- 9&#45;&gt;13 -->
<g id="edge13" class="edge">
<title>9&#45;&gt;13</title>
<path fill="none" stroke="black" d="M1146.47,-192.88C1155.29,-183.89 1164.94,-174.04 1174.12,-164.68"/>
<polygon fill="black" stroke="black" points="1176.85,-166.89 1181.35,-157.3 1171.85,-161.99 1176.85,-166.89"/>
</g>
<!-- 11 -->
<g id="node12" class="node">
<title>11</title>
<polygon fill="#f4caab" stroke="black" points="917.5,-53 766.5,-53 766.5,0 917.5,0 917.5,-53"/>
<text text-anchor="middle" x="842" y="-37.8" font-family="Helvetica,sans-Serif" font-size="14.00">squared_error = 400.0</text>
<text text-anchor="middle" x="842" y="-22.8" font-family="Helvetica,sans-Serif" font-size="14.00">samples = 2</text>
<text text-anchor="middle" x="842" y="-7.8" font-family="Helvetica,sans-Serif" font-size="14.00">value = 1129.0</text>
</g>
<!-- 10&#45;&gt;11 -->
<g id="edge11" class="edge">
<title>10&#45;&gt;11</title>
<path fill="none" stroke="black" d="M954.49,-88.95C936.16,-78.93 916.1,-67.98 898.07,-58.13"/>
<polygon fill="black" stroke="black" points="899.3,-54.81 888.84,-53.09 895.94,-60.95 899.3,-54.81"/>
</g>
<!-- 12 -->
<g id="node13" class="node">
<title>12</title>
<polygon fill="#f7dac5" stroke="black" points="1116.5,-53 935.5,-53 935.5,0 1116.5,0 1116.5,-53"/>
<text text-anchor="middle" x="1026" y="-37.8" font-family="Helvetica,sans-Serif" font-size="14.00">squared_error = 57823.079</text>
<text text-anchor="middle" x="1026" y="-22.8" font-family="Helvetica,sans-Serif" font-size="14.00">samples = 21</text>
<text text-anchor="middle" x="1026" y="-7.8" font-family="Helvetica,sans-Serif" font-size="14.00">value = 799.333</text>
</g>
<!-- 10&#45;&gt;12 -->
<g id="edge12" class="edge">
<title>10&#45;&gt;12</title>
<path fill="none" stroke="black" d="M1018.85,-88.95C1019.82,-80.62 1020.86,-71.65 1021.84,-63.2"/>
<polygon fill="black" stroke="black" points="1025.32,-63.57 1023,-53.24 1018.37,-62.76 1025.32,-63.57"/>
</g>
<!-- 14 -->
<g id="node15" class="node">
<title>14</title>
<polygon fill="#fae4d5" stroke="black" points="1271,-53 1135,-53 1135,0 1271,0 1271,-53"/>
<text text-anchor="middle" x="1203" y="-37.8" font-family="Helvetica,sans-Serif" font-size="14.00">squared_error = 0.0</text>
<text text-anchor="middle" x="1203" y="-22.8" font-family="Helvetica,sans-Serif" font-size="14.00">samples = 1</text>
<text text-anchor="middle" x="1203" y="-7.8" font-family="Helvetica,sans-Serif" font-size="14.00">value = 595.0</text>
</g>
<!-- 13&#45;&gt;14 -->
<g id="edge14" class="edge">
<title>13&#45;&gt;14</title>
<path fill="none" stroke="black" d="M1210.15,-88.95C1209.18,-80.62 1208.14,-71.65 1207.16,-63.2"/>
<polygon fill="black" stroke="black" points="1210.63,-62.76 1206,-53.24 1203.68,-63.57 1210.63,-62.76"/>
</g>
<!-- 15 -->
<g id="node16" class="node">
<title>15</title>
<polygon fill="#f1bc96" stroke="black" points="1455,-53 1289,-53 1289,0 1455,0 1455,-53"/>
<text text-anchor="middle" x="1372" y="-37.8" font-family="Helvetica,sans-Serif" font-size="14.00">squared_error = 91486.5</text>
<text text-anchor="middle" x="1372" y="-22.8" font-family="Helvetica,sans-Serif" font-size="14.00">samples = 4</text>
<text text-anchor="middle" x="1372" y="-7.8" font-family="Helvetica,sans-Serif" font-size="14.00">value = 1391.0</text>
</g>
<!-- 13&#45;&gt;15 -->
<g id="edge15" class="edge">
<title>13&#45;&gt;15</title>
<path fill="none" stroke="black" d="M1269.26,-88.95C1285.85,-79.02 1303.99,-68.18 1320.34,-58.4"/>
<polygon fill="black" stroke="black" points="1322.43,-61.22 1329.22,-53.09 1318.84,-55.22 1322.43,-61.22"/>
</g>
<!-- 17 -->
<g id="node18" class="node">
<title>17</title>
<polygon fill="#fbede2" stroke="black" points="1936.5,-261 1755.5,-261 1755.5,-193 1936.5,-193 1936.5,-261"/>
<text text-anchor="middle" x="1846" y="-245.8" font-family="Helvetica,sans-Serif" font-size="14.00">category &lt;= 3.5</text>
<text text-anchor="middle" x="1846" y="-230.8" font-family="Helvetica,sans-Serif" font-size="14.00">squared_error = 59215.905</text>
<text text-anchor="middle" x="1846" y="-215.8" font-family="Helvetica,sans-Serif" font-size="14.00">samples = 99</text>
<text text-anchor="middle" x="1846" y="-200.8" font-family="Helvetica,sans-Serif" font-size="14.00">value = 435.535</text>
</g>
<!-- 16&#45;&gt;17 -->
<g id="edge17" class="edge">
<title>16&#45;&gt;17</title>
<path fill="none" stroke="black" d="M1846,-296.88C1846,-288.78 1846,-279.98 1846,-271.47"/>
<polygon fill="black" stroke="black" points="1849.5,-271.3 1846,-261.3 1842.5,-271.3 1849.5,-271.3"/>
</g>
<!-- 24 -->
<g id="node25" class="node">
<title>24</title>
<polygon fill="#f6d5bd" stroke="black" points="2480,-261 2292,-261 2292,-193 2480,-193 2480,-261"/>
<text text-anchor="middle" x="2386" y="-245.8" font-family="Helvetica,sans-Serif" font-size="14.00">colour &lt;= 5.0</text>
<text text-anchor="middle" x="2386" y="-230.8" font-family="Helvetica,sans-Serif" font-size="14.00">squared_error = 191451.796</text>
<text text-anchor="middle" x="2386" y="-215.8" font-family="Helvetica,sans-Serif" font-size="14.00">samples = 15</text>
<text text-anchor="middle" x="2386" y="-200.8" font-family="Helvetica,sans-Serif" font-size="14.00">value = 900.933</text>
</g>
<!-- 16&#45;&gt;24 -->
<g id="edge24" class="edge">
<title>16&#45;&gt;24</title>
<path fill="none" stroke="black" d="M1940.06,-312.23C2035.45,-294.22 2182.72,-266.4 2281.64,-247.71"/>
<polygon fill="black" stroke="black" points="2282.48,-251.12 2291.66,-245.82 2281.18,-244.24 2282.48,-251.12"/>
</g>
<!-- 18 -->
<g id="node19" class="node">
<title>18</title>
<polygon fill="#fae7da" stroke="black" points="1837.5,-157 1656.5,-157 1656.5,-89 1837.5,-89 1837.5,-157"/>
<text text-anchor="middle" x="1747" y="-141.8" font-family="Helvetica,sans-Serif" font-size="14.00">price &lt;= 30.5</text>
<text text-anchor="middle" x="1747" y="-126.8" font-family="Helvetica,sans-Serif" font-size="14.00">squared_error = 57966.045</text>
<text text-anchor="middle" x="1747" y="-111.8" font-family="Helvetica,sans-Serif" font-size="14.00">samples = 49</text>
<text text-anchor="middle" x="1747" y="-96.8" font-family="Helvetica,sans-Serif" font-size="14.00">value = 541.531</text>
</g>
<!-- 17&#45;&gt;18 -->
<g id="edge18" class="edge">
<title>17&#45;&gt;18</title>
<path fill="none" stroke="black" d="M1813.86,-192.88C1805.13,-183.89 1795.57,-174.04 1786.48,-164.68"/>
<polygon fill="black" stroke="black" points="1788.8,-162.04 1779.32,-157.3 1783.77,-166.91 1788.8,-162.04"/>
</g>
<!-- 21 -->
<g id="node22" class="node">
<title>21</title>
<polygon fill="#fcf2ea" stroke="black" points="2036.5,-157 1855.5,-157 1855.5,-89 2036.5,-89 2036.5,-157"/>
<text text-anchor="middle" x="1946" y="-141.8" font-family="Helvetica,sans-Serif" font-size="14.00">day &lt;= 1.5</text>
<text text-anchor="middle" x="1946" y="-126.8" font-family="Helvetica,sans-Serif" font-size="14.00">squared_error = 38640.384</text>
<text text-anchor="middle" x="1946" y="-111.8" font-family="Helvetica,sans-Serif" font-size="14.00">samples = 50</text>
<text text-anchor="middle" x="1946" y="-96.8" font-family="Helvetica,sans-Serif" font-size="14.00">value = 331.66</text>
</g>
<!-- 17&#45;&gt;21 -->
<g id="edge21" class="edge">
<title>17&#45;&gt;21</title>
<path fill="none" stroke="black" d="M1878.47,-192.88C1887.29,-183.89 1896.94,-174.04 1906.12,-164.68"/>
<polygon fill="black" stroke="black" points="1908.85,-166.89 1913.35,-157.3 1903.85,-161.99 1908.85,-166.89"/>
</g>
<!-- 19 -->
<g id="node20" class="node">
<title>19</title>
<polygon fill="#f9e0cf" stroke="black" points="1639,-53 1473,-53 1473,0 1639,0 1639,-53"/>
<text text-anchor="middle" x="1556" y="-37.8" font-family="Helvetica,sans-Serif" font-size="14.00">squared_error = 63568.5</text>
<text text-anchor="middle" x="1556" y="-22.8" font-family="Helvetica,sans-Serif" font-size="14.00">samples = 8</text>
<text text-anchor="middle" x="1556" y="-7.8" font-family="Helvetica,sans-Serif" font-size="14.00">value = 678.5</text>
</g>
<!-- 18&#45;&gt;19 -->
<g id="edge19" class="edge">
<title>18&#45;&gt;19</title>
<path fill="none" stroke="black" d="M1680.2,-88.95C1659.58,-78.75 1637,-67.57 1616.81,-57.59"/>
<polygon fill="black" stroke="black" points="1618.23,-54.38 1607.71,-53.09 1615.13,-60.66 1618.23,-54.38"/>
</g>
<!-- 20 -->
<g id="node21" class="node">
<title>20</title>
<polygon fill="#fae9dc" stroke="black" points="1837,-53 1657,-53 1657,0 1837,0 1837,-53"/>
<text text-anchor="middle" x="1747" y="-37.8" font-family="Helvetica,sans-Serif" font-size="14.00">squared_error = 52498.011</text>
<text text-anchor="middle" x="1747" y="-22.8" font-family="Helvetica,sans-Serif" font-size="14.00">samples = 41</text>
<text text-anchor="middle" x="1747" y="-7.8" font-family="Helvetica,sans-Serif" font-size="14.00">value = 514.805</text>
</g>
<!-- 18&#45;&gt;20 -->
<g id="edge20" class="edge">
<title>18&#45;&gt;20</title>
<path fill="none" stroke="black" d="M1747,-88.95C1747,-80.72 1747,-71.85 1747,-63.48"/>
<polygon fill="black" stroke="black" points="1750.5,-63.24 1747,-53.24 1743.5,-63.24 1750.5,-63.24"/>
</g>
<!-- 22 -->
<g id="node23" class="node">
<title>22</title>
<polygon fill="#fcf0e8" stroke="black" points="2036.5,-53 1855.5,-53 1855.5,0 2036.5,0 2036.5,-53"/>
<text text-anchor="middle" x="1946" y="-37.8" font-family="Helvetica,sans-Serif" font-size="14.00">squared_error = 33665.595</text>
<text text-anchor="middle" x="1946" y="-22.8" font-family="Helvetica,sans-Serif" font-size="14.00">samples = 45</text>
<text text-anchor="middle" x="1946" y="-7.8" font-family="Helvetica,sans-Serif" font-size="14.00">value = 360.778</text>
</g>
<!-- 21&#45;&gt;22 -->
<g id="edge22" class="edge">
<title>21&#45;&gt;22</title>
<path fill="none" stroke="black" d="M1946,-88.95C1946,-80.72 1946,-71.85 1946,-63.48"/>
<polygon fill="black" stroke="black" points="1949.5,-63.24 1946,-53.24 1942.5,-63.24 1949.5,-63.24"/>
</g>
<!-- 23 -->
<g id="node24" class="node">
<title>23</title>
<polygon fill="#ffffff" stroke="black" points="2221,-53 2055,-53 2055,0 2221,0 2221,-53"/>
<text text-anchor="middle" x="2138" y="-37.8" font-family="Helvetica,sans-Serif" font-size="14.00">squared_error = 7107.44</text>
<text text-anchor="middle" x="2138" y="-22.8" font-family="Helvetica,sans-Serif" font-size="14.00">samples = 5</text>
<text text-anchor="middle" x="2138" y="-7.8" font-family="Helvetica,sans-Serif" font-size="14.00">value = 69.6</text>
</g>
<!-- 21&#45;&gt;23 -->
<g id="edge23" class="edge">
<title>21&#45;&gt;23</title>
<path fill="none" stroke="black" d="M2013.15,-88.95C2033.88,-78.75 2056.58,-67.57 2076.87,-57.59"/>
<polygon fill="black" stroke="black" points="2078.59,-60.64 2086.01,-53.09 2075.5,-54.36 2078.59,-60.64"/>
</g>
<!-- 25 -->
<g id="node26" class="node">
<title>25</title>
<polygon fill="#f8dfcd" stroke="black" points="2480,-157 2292,-157 2292,-89 2480,-89 2480,-157"/>
<text text-anchor="middle" x="2386" y="-141.8" font-family="Helvetica,sans-Serif" font-size="14.00">colour &lt;= 1.5</text>
<text text-anchor="middle" x="2386" y="-126.8" font-family="Helvetica,sans-Serif" font-size="14.00">squared_error = 125190.245</text>
<text text-anchor="middle" x="2386" y="-111.8" font-family="Helvetica,sans-Serif" font-size="14.00">samples = 7</text>
<text text-anchor="middle" x="2386" y="-96.8" font-family="Helvetica,sans-Serif" font-size="14.00">value = 698.429</text>
</g>
<!-- 24&#45;&gt;25 -->
<g id="edge25" class="edge">
<title>24&#45;&gt;25</title>
<path fill="none" stroke="black" d="M2386,-192.88C2386,-184.78 2386,-175.98 2386,-167.47"/>
<polygon fill="black" stroke="black" points="2389.5,-167.3 2386,-157.3 2382.5,-167.3 2389.5,-167.3"/>
</g>
<!-- 28 -->
<g id="node29" class="node">
<title>28</title>
<polygon fill="#f4ccaf" stroke="black" points="2765,-157 2577,-157 2577,-89 2765,-89 2765,-157"/>
<text text-anchor="middle" x="2671" y="-141.8" font-family="Helvetica,sans-Serif" font-size="14.00">page &lt;= 2.5</text>
<text text-anchor="middle" x="2671" y="-126.8" font-family="Helvetica,sans-Serif" font-size="14.00">squared_error = 182151.609</text>
<text text-anchor="middle" x="2671" y="-111.8" font-family="Helvetica,sans-Serif" font-size="14.00">samples = 8</text>
<text text-anchor="middle" x="2671" y="-96.8" font-family="Helvetica,sans-Serif" font-size="14.00">value = 1078.125</text>
</g>
<!-- 24&#45;&gt;28 -->
<g id="edge28" class="edge">
<title>24&#45;&gt;28</title>
<path fill="none" stroke="black" d="M2478.53,-192.88C2507.42,-182.54 2539.45,-171.08 2568.96,-160.52"/>
<polygon fill="black" stroke="black" points="2570.21,-163.79 2578.45,-157.12 2567.85,-157.2 2570.21,-163.79"/>
</g>
<!-- 26 -->
<g id="node27" class="node">
<title>26</title>
<polygon fill="#f1bc96" stroke="black" points="2375,-53 2239,-53 2239,0 2375,0 2375,-53"/>
<text text-anchor="middle" x="2307" y="-37.8" font-family="Helvetica,sans-Serif" font-size="14.00">squared_error = 0.0</text>
<text text-anchor="middle" x="2307" y="-22.8" font-family="Helvetica,sans-Serif" font-size="14.00">samples = 1</text>
<text text-anchor="middle" x="2307" y="-7.8" font-family="Helvetica,sans-Serif" font-size="14.00">value = 1388.0</text>
</g>
<!-- 25&#45;&gt;26 -->
<g id="edge26" class="edge">
<title>25&#45;&gt;26</title>
<path fill="none" stroke="black" d="M2358.37,-88.95C2350.8,-79.89 2342.59,-70.07 2334.99,-60.99"/>
<polygon fill="black" stroke="black" points="2337.61,-58.66 2328.52,-53.24 2332.24,-63.15 2337.61,-58.66"/>
</g>
<!-- 27 -->
<g id="node28" class="node">
<title>27</title>
<polygon fill="#fae5d6" stroke="black" points="2566.5,-53 2393.5,-53 2393.5,0 2566.5,0 2566.5,-53"/>
<text text-anchor="middle" x="2480" y="-37.8" font-family="Helvetica,sans-Serif" font-size="14.00">squared_error = 53595.25</text>
<text text-anchor="middle" x="2480" y="-22.8" font-family="Helvetica,sans-Serif" font-size="14.00">samples = 6</text>
<text text-anchor="middle" x="2480" y="-7.8" font-family="Helvetica,sans-Serif" font-size="14.00">value = 583.5</text>
</g>
<!-- 25&#45;&gt;27 -->
<g id="edge27" class="edge">
<title>25&#45;&gt;27</title>
<path fill="none" stroke="black" d="M2418.88,-88.95C2428.07,-79.71 2438.05,-69.67 2447.24,-60.44"/>
<polygon fill="black" stroke="black" points="2449.83,-62.79 2454.4,-53.24 2444.87,-57.86 2449.83,-62.79"/>
</g>
<!-- 29 -->
<g id="node30" class="node">
<title>29</title>
<polygon fill="#f3c3a1" stroke="black" points="2757.5,-53 2584.5,-53 2584.5,0 2757.5,0 2757.5,-53"/>
<text text-anchor="middle" x="2671" y="-37.8" font-family="Helvetica,sans-Serif" font-size="14.00">squared_error = 149268.8</text>
<text text-anchor="middle" x="2671" y="-22.8" font-family="Helvetica,sans-Serif" font-size="14.00">samples = 5</text>
<text text-anchor="middle" x="2671" y="-7.8" font-family="Helvetica,sans-Serif" font-size="14.00">value = 1259.0</text>
</g>
<!-- 28&#45;&gt;29 -->
<g id="edge29" class="edge">
<title>28&#45;&gt;29</title>
<path fill="none" stroke="black" d="M2671,-88.95C2671,-80.72 2671,-71.85 2671,-63.48"/>
<polygon fill="black" stroke="black" points="2674.5,-63.24 2671,-53.24 2667.5,-63.24 2674.5,-63.24"/>
</g>
<!-- 30 -->
<g id="node31" class="node">
<title>30</title>
<polygon fill="#f8dbc7" stroke="black" points="2956.5,-53 2775.5,-53 2775.5,0 2956.5,0 2956.5,-53"/>
<text text-anchor="middle" x="2866" y="-37.8" font-family="Helvetica,sans-Serif" font-size="14.00">squared_error = 91552.889</text>
<text text-anchor="middle" x="2866" y="-22.8" font-family="Helvetica,sans-Serif" font-size="14.00">samples = 3</text>
<text text-anchor="middle" x="2866" y="-7.8" font-family="Helvetica,sans-Serif" font-size="14.00">value = 776.667</text>
</g>
<!-- 28&#45;&gt;30 -->
<g id="edge30" class="edge">
<title>28&#45;&gt;30</title>
<path fill="none" stroke="black" d="M2739.2,-88.95C2760.34,-78.7 2783.51,-67.47 2804.2,-57.45"/>
<polygon fill="black" stroke="black" points="2805.73,-60.6 2813.2,-53.09 2802.68,-54.3 2805.73,-60.6"/>
</g>
</g>
</svg>
